<?xml version="1.0" encoding="UTF-8" standalone="no"?>
<!-- Generator: Adobe Illustrator 15.0.0, SVG Export Plug-In . SVG Version: 6.00 Build 0)  -->

<svg
   xmlns:dc="http://purl.org/dc/elements/1.1/"
   xmlns:cc="http://creativecommons.org/ns#"
   xmlns:rdf="http://www.w3.org/1999/02/22-rdf-syntax-ns#"
   xmlns:svg="http://www.w3.org/2000/svg"
   xmlns="http://www.w3.org/2000/svg"
   xmlns:sodipodi="http://sodipodi.sourceforge.net/DTD/sodipodi-0.dtd"
   xmlns:inkscape="http://www.inkscape.org/namespaces/inkscape"
   version="1.1"
   id="Layer_1"
   x="0px"
   y="0px"
   width="320.00101"
   height="98.849998"
   viewBox="0 0 320.001 98.849994"
   enable-background="new 0 0 841.89 595.28"
   xml:space="preserve"
   inkscape:version="0.48.2 r9819"
   sodipodi:docname="dekode_logo.svg"><metadata
   id="metadata33"><rdf:RDF><cc:Work
       rdf:about=""><dc:format>image/svg+xml</dc:format><dc:type
         rdf:resource="http://purl.org/dc/dcmitype/StillImage" /></cc:Work></rdf:RDF></metadata><defs
   id="defs31" /><sodipodi:namedview
   pagecolor="#ffffff"
   bordercolor="#666666"
   borderopacity="1"
   objecttolerance="10"
   gridtolerance="10"
   guidetolerance="10"
   inkscape:pageopacity="0"
   inkscape:pageshadow="2"
   inkscape:window-width="640"
   inkscape:window-height="480"
   id="namedview29"
   showgrid="false"
   fit-margin-top="0"
   fit-margin-left="0"
   fit-margin-right="0"
   fit-margin-bottom="0"
   inkscape:zoom="0.38247276"
   inkscape:cx="160.283"
   inkscape:cy="49.880001"
   inkscape:window-x="916"
   inkscape:window-y="147"
   inkscape:window-maximized="0"
   inkscape:current-layer="Layer_1" />
<g
   id="g3"
   transform="translate(-260.662,-248.67001)">
	<path
   d="m 364.286,277.589 h 5.413 c 1.49,0 2.762,0.555 3.825,1.669 1.063,1.119 1.588,2.365 1.588,3.744 v 31.055 c 0,7.529 -2.173,12.626 -6.527,15.28 -4.349,2.655 -9.075,3.987 -14.171,3.987 -2.762,0 -5.468,-0.461 -8.119,-1.357 -2.655,-0.896 -4.776,-2.365 -6.373,-4.38 -3.077,-3.927 -4.618,-9.288 -4.618,-16.083 0,-6.685 1.541,-12.043 4.618,-16.082 3.185,-4.14 7.273,-6.21 12.264,-6.21 2.655,0 4.99,0.534 7.004,1.592 2.125,1.272 3.824,2.919 5.096,4.938 v -18.153 z m -18.153,33.436 c 0,4.252 0.794,7.487 2.39,9.715 1.592,2.229 3.876,3.347 6.847,3.347 2.864,0 5.097,-1.118 6.688,-3.347 1.481,-2.228 2.228,-5.463 2.228,-9.715 0,-3.815 -0.794,-6.846 -2.386,-9.076 -1.708,-2.122 -3.982,-3.185 -6.847,-3.185 -2.766,0 -4.938,1.114 -6.531,3.349 -1.595,2.117 -2.389,5.097 -2.389,8.912 z"
   id="path5"
   inkscape:connector-curvature="0"
   style="fill:#1a1f1f" />
	<path
   d="m 408.375,319.469 h 7.96 c -1.169,4.456 -3.393,7.854 -6.684,10.185 -3.291,2.45 -7.436,3.671 -12.421,3.671 -6.048,0 -10.778,-1.964 -14.171,-5.891 -3.402,-3.824 -5.101,-9.297 -5.101,-16.408 0,-6.795 1.652,-12.099 4.947,-15.923 3.394,-3.927 8.114,-5.891 14.163,-5.891 6.377,0 11.307,1.912 14.812,5.732 3.397,3.927 5.097,9.397 5.097,16.406 0,0.418 0,0.794 0,1.109 0,0.324 0,0.529 0,0.641 0,0.529 -0.047,0.904 -0.158,1.109 h -27.553 c 0.111,3.295 0.905,5.737 2.39,7.324 1.383,1.708 3.449,2.553 6.211,2.553 1.806,0 3.346,-0.375 4.618,-1.118 0.32,-0.103 0.61,-0.29 0.875,-0.555 0.265,-0.265 0.56,-0.555 0.879,-0.88 0.103,-0.315 0.5,-0.733 1.191,-1.271 0.691,-0.529 1.677,-0.793 2.945,-0.793 z m -19.11,-12.421 h 16.246 c -0.213,-2.868 -0.952,-4.994 -2.232,-6.371 -1.378,-1.485 -3.342,-2.228 -5.886,-2.228 -2.339,0 -4.251,0.743 -5.737,2.228 -1.486,1.487 -2.28,3.613 -2.391,6.371 z"
   id="path7"
   inkscape:connector-curvature="0"
   style="fill:#1a1f1f" />
	<path
   d="m 431.612,290.168 v 15.599 l 13.535,-15.599 h 13.369 l -15.123,16.239 15.289,26.114 h -13.377 l -7.799,-14.325 c -1.597,-2.868 -2.979,-4.089 -4.145,-3.662 -1.17,0.427 -1.75,1.059 -1.75,1.904 v 5.898 10.185 h -11.149 v -54.774 h 5.732 c 1.49,0 2.758,0.533 3.82,1.592 1.063,1.063 1.597,2.284 1.597,3.663 v 7.166 z"
   id="path9"
   inkscape:connector-curvature="0"
   style="fill:#1a1f1f" />
	<path
   d="m 464.121,328.706 c -2.232,-1.913 -3.82,-4.491 -4.781,-7.727 -0.951,-3.235 -1.43,-6.607 -1.43,-10.107 0,-2.868 0.396,-5.736 1.19,-8.605 0.799,-2.866 2.041,-5.252 3.744,-7.164 2.762,-3.185 6.313,-5.067 10.671,-5.651 4.35,-0.585 8.28,-0.239 11.78,1.037 4.038,1.588 7.005,4.354 8.922,8.276 1.801,3.502 2.706,7.592 2.706,12.261 0,3.398 -0.376,6.317 -1.123,8.759 -0.734,2.442 -1.69,4.517 -2.859,6.215 -2.544,3.501 -5.788,5.678 -9.711,6.522 -3.505,0.956 -7.034,1.042 -10.59,0.239 -3.559,-0.794 -6.398,-2.152 -8.519,-4.055 z m 7.64,-28.029 c -2.228,2.444 -3.235,6.081 -3.021,10.904 0.209,4.84 1.114,8.203 2.706,10.116 0.636,0.854 1.75,1.57 3.342,2.15 1.593,0.581 3.21,0.632 4.857,0.154 1.64,-0.479 3.107,-1.665 4.38,-3.577 1.271,-1.912 1.964,-4.994 2.065,-9.237 0,-3.824 -0.605,-6.684 -1.826,-8.596 -1.221,-1.915 -2.63,-3.131 -4.218,-3.665 -1.596,-0.529 -3.188,-0.555 -4.784,-0.081 -1.588,0.479 -2.754,1.093 -3.501,1.832 z"
   id="path11"
   inkscape:connector-curvature="0"
   style="fill:#1a1f1f" />
	<path
   d="m 527.972,277.589 h 5.413 c 1.485,0 2.766,0.555 3.82,1.669 1.063,1.119 1.596,2.365 1.596,3.744 v 31.055 c 0,7.529 -2.177,12.626 -6.526,15.28 -4.357,2.655 -9.079,3.987 -14.175,3.987 -2.758,0 -5.464,-0.461 -8.123,-1.357 -2.655,-0.896 -4.772,-2.365 -6.368,-4.38 -3.082,-3.927 -4.623,-9.288 -4.623,-16.083 0,-6.685 1.541,-12.043 4.623,-16.082 3.184,-4.14 7.269,-6.21 12.259,-6.21 2.654,0 4.994,0.534 7.009,1.592 2.125,1.272 3.824,2.919 5.096,4.938 v -18.153 z m -18.154,33.436 c 0,4.252 0.799,7.487 2.391,9.715 1.588,2.229 3.871,3.347 6.847,3.347 2.868,0 5.097,-1.118 6.688,-3.347 1.481,-2.228 2.228,-5.463 2.228,-9.715 0,-3.815 -0.798,-6.846 -2.386,-9.076 -1.703,-2.122 -3.979,-3.185 -6.851,-3.185 -2.762,0 -4.938,1.114 -6.526,3.349 -1.592,2.117 -2.391,5.097 -2.391,8.912 z"
   id="path13"
   inkscape:connector-curvature="0"
   style="fill:#1a1f1f" />
	<path
   d="m 572.065,319.469 h 7.96 c -1.169,4.456 -3.401,7.854 -6.688,10.185 -3.291,2.45 -7.436,3.671 -12.421,3.671 -6.053,0 -10.773,-1.964 -14.171,-5.891 -3.402,-3.824 -5.097,-9.297 -5.097,-16.408 0,-6.795 1.643,-12.099 4.934,-15.923 3.398,-3.927 8.123,-5.891 14.172,-5.891 6.373,0 11.312,1.912 14.812,5.732 3.397,3.927 5.097,9.397 5.097,16.406 0,0.418 0,0.794 0,1.109 0,0.324 0,0.529 0,0.641 0,0.529 -0.052,0.904 -0.158,1.109 h -27.553 c 0.11,3.295 0.904,5.737 2.391,7.324 1.383,1.708 3.453,2.553 6.21,2.553 1.806,0 3.343,-0.375 4.618,-1.118 0.32,-0.103 0.61,-0.29 0.88,-0.555 0.26,-0.265 0.555,-0.555 0.87,-0.88 0.107,-0.315 0.509,-0.733 1.195,-1.271 0.691,-0.529 1.673,-0.793 2.949,-0.793 z m -19.114,-12.421 h 16.245 c -0.213,-2.868 -0.956,-4.994 -2.228,-6.371 -1.383,-1.485 -3.347,-2.228 -5.895,-2.228 -2.335,0 -4.247,0.743 -5.732,2.228 -1.486,1.487 -2.279,3.613 -2.39,6.371 z"
   id="path15"
   inkscape:connector-curvature="0"
   style="fill:#1a1f1f" />
</g>
<g
   id="g17"
   transform="translate(-260.662,-248.67001)">
	<path
   d="m 302.936,304.486 c 2.267,-1.434 4.119,-3.344 5.553,-5.73 1.195,-2.271 1.793,-4.896 1.793,-7.884 0,-5.613 -2.331,-10.21 -6.987,-13.792 -4.538,-3.466 -10.569,-5.195 -18.094,-5.195 -7.64,0 -13.671,1.729 -18.089,5.195 -2.271,1.793 -3.914,4.179 -4.926,7.167 -1.016,2.984 -1.524,6.027 -1.524,9.135 0,3.91 0.713,7.624 2.104,11.147 h -1.208 v 12.541 h 11.465 6.625 c 0.956,0 1.673,0.657 2.151,1.972 0.478,1.306 -0.896,2.868 -4.119,4.652 l -16.122,8.784 v 15.042 l 29.375,-17.193 18.273,17.015 V 332.3 L 291.65,317.07 h 17.556 8.059 c 1.554,0 2.928,-0.598 4.124,-1.793 0.666,-0.666 1.127,-1.417 1.421,-2.237 0.354,-0.751 0.546,-1.57 0.546,-2.458 v -6.096 h -20.42 z m -5.976,-1.971 c -2.745,1.955 -6.471,2.937 -11.179,2.937 -5.229,0 -9.215,-0.913 -11.964,-2.74 -2.745,-1.961 -4.115,-4.706 -4.115,-8.236 0,-3.667 1.37,-6.476 4.115,-8.435 2.749,-1.963 6.736,-2.945 11.964,-2.945 4.708,0 8.371,0.982 10.983,2.945 2.749,1.959 4.119,4.64 4.119,8.042 0,3.529 -1.306,6.338 -3.923,8.432 z"
   id="path19"
   inkscape:connector-curvature="0"
   style="fill:#db2027" />
	<path
   d="m 288.043,251.415 c 0,1.52 -1.233,2.753 -2.753,2.753 -1.515,0 -2.749,-1.233 -2.749,-2.753 0,-1.515 1.234,-2.745 2.749,-2.745 1.52,0 2.753,1.23 2.753,2.745 z"
   id="path21"
   inkscape:connector-curvature="0"
   style="fill:#db2027" />
	<polygon
   points="281.842,273.935 285.291,273.935 288.739,273.935 285.803,252.166 285.291,252.166 284.778,252.166 "
   id="polygon23"
   style="fill:#db2027" />
	<ellipse
   cx="279.58801"
   cy="294.35999"
   rx="2.6040001"
   ry="4.6269999"
   id="ellipse25"
   sodipodi:cx="279.58801"
   sodipodi:cy="294.35999"
   sodipodi:rx="2.6040001"
   sodipodi:ry="4.6269999"
   style="fill:#db2027"
   d="m 282.19201,294.35999 c 0,2.55542 -1.16585,4.627 -2.604,4.627 -1.43815,0 -2.604,-2.07158 -2.604,-4.627 0,-2.55543 1.16585,-4.627 2.604,-4.627 1.43815,0 2.604,2.07157 2.604,4.627 z" />
	<ellipse
   cx="290.99301"
   cy="294.35999"
   rx="2.6040001"
   ry="4.6269999"
   id="ellipse27"
   sodipodi:cx="290.99301"
   sodipodi:cy="294.35999"
   sodipodi:rx="2.6040001"
   sodipodi:ry="4.6269999"
   style="fill:#db2027"
   d="m 293.59701,294.35999 c 0,2.55542 -1.16585,4.627 -2.604,4.627 -1.43815,0 -2.604,-2.07158 -2.604,-4.627 0,-2.55543 1.16585,-4.627 2.604,-4.627 1.43815,0 2.604,2.07157 2.604,4.627 z" />
</g>
</svg>