<?xml version="1.0" encoding="UTF-8" standalone="no"?>
<!-- Generator: Adobe Illustrator 15.0.2, SVG Export Plug-In . SVG Version: 6.00 Build 0)  -->

<svg
   xmlns:dc="http://purl.org/dc/elements/1.1/"
   xmlns:cc="http://creativecommons.org/ns#"
   xmlns:rdf="http://www.w3.org/1999/02/22-rdf-syntax-ns#"
   xmlns:svg="http://www.w3.org/2000/svg"
   xmlns="http://www.w3.org/2000/svg"
   xmlns:sodipodi="http://sodipodi.sourceforge.net/DTD/sodipodi-0.dtd"
   xmlns:inkscape="http://www.inkscape.org/namespaces/inkscape"
   version="1.1"
   id="Layer_1"
   x="0px"
   y="0px"
   width="172.77899"
   height="47.328999"
   viewBox="0 0 172.779 47.329"
   xml:space="preserve"
   inkscape:version="0.48.2 r9819"
   sodipodi:docname="loogica-vetor-sem_subtitulo.svg"><metadata
   id="metadata3175"><rdf:RDF><cc:Work
       rdf:about=""><dc:format>image/svg+xml</dc:format><dc:type
         rdf:resource="http://purl.org/dc/dcmitype/StillImage" /><dc:title></dc:title></cc:Work></rdf:RDF></metadata><defs
   id="defs3173">
	
	
	
</defs><sodipodi:namedview
   pagecolor="#ffffff"
   bordercolor="#666666"
   borderopacity="1"
   objecttolerance="10"
   gridtolerance="10"
   guidetolerance="10"
   inkscape:pageopacity="0"
   inkscape:pageshadow="2"
   inkscape:window-width="822"
   inkscape:window-height="424"
   id="namedview3171"
   showgrid="false"
   inkscape:zoom="1.4142136"
   inkscape:cx="-8.8087222"
   inkscape:cy="34.401871"
   inkscape:window-x="70"
   inkscape:window-y="151"
   inkscape:window-maximized="0"
   inkscape:current-layer="Layer_1"
   fit-margin-top="0"
   fit-margin-left="0"
   fit-margin-right="0"
   fit-margin-bottom="0" />
<g
   id="g3111"
   transform="translate(-32.291,-27.297002)">
		<rect
   style="fill:#e41f13"
   id="rect3113"
   height="5.3829999"
   width="8.401"
   y="27.301001"
   x="135.55299" />
		<path
   style="fill:#e41f13"
   inkscape:connector-curvature="0"
   id="path3115"
   d="m 99.353,44.639 c -0.604,-1.783 -1.496,-3.327 -2.675,-4.626 -1.178,-1.297 -2.616,-2.312 -4.314,-3.04 -1.64,-0.704 -5.184,-1.064 -7.283,-1.087 -2.097,0.022 -3.887,0.383 -5.496,1.087 -1.662,0.728 -3.071,1.743 -4.225,3.04 -0.32,0.363 -0.623,0.746 -0.898,1.145 -0.441,0.652 -1.185,1.082 -2.03,1.082 -0.847,0 -1.59,-0.43 -2.032,-1.082 -0.278,-0.399 -0.578,-0.782 -0.901,-1.145 -1.151,-1.297 -2.561,-2.312 -4.223,-3.04 -1.608,-0.704 -3.398,-1.064 -5.495,-1.087 -2.099,0.022 -5.601,0.383 -7.243,1.087 -1.696,0.728 -3.134,1.743 -4.312,3.04 -1.178,1.299 -2.07,2.843 -2.675,4.626 -0.607,1.785 -0.912,3.716 -0.912,5.795 0,2.079 0.305,4.007 0.912,5.793 0.605,1.786 1.497,3.327 2.675,4.626 1.179,1.299 2.617,2.312 4.312,3.04 1.642,0.704 5.144,1.064 7.243,1.086 2.097,-0.022 3.887,-0.383 5.495,-1.086 1.662,-0.728 3.071,-1.741 4.223,-3.04 0.323,-0.363 0.623,-0.744 0.901,-1.145 0.441,-0.652 1.185,-1.082 2.032,-1.082 0.845,0 1.588,0.43 2.03,1.082 0.275,0.401 0.578,0.782 0.898,1.145 1.154,1.299 2.563,2.312 4.225,3.04 1.608,0.704 3.398,1.064 5.496,1.086 2.099,-0.022 5.643,-0.383 7.283,-1.086 1.698,-0.728 3.136,-1.741 4.314,-3.04 1.179,-1.299 2.07,-2.84 2.675,-4.626 0.607,-1.786 0.91,-3.714 0.91,-5.793 0,-2.079 -0.303,-4.01 -0.91,-5.795 z m -34.042,9.079 c -0.213,1.051 -0.58,1.994 -1.096,2.83 -0.517,0.838 -1.212,1.505 -2.083,2.005 -0.872,0.498 -1.949,0.746 -3.23,0.746 -1.282,0 -2.35,-0.249 -3.206,-0.746 -0.854,-0.5 -1.539,-1.167 -2.054,-2.005 -0.518,-0.835 -0.882,-1.779 -1.095,-2.83 -0.213,-1.05 -0.32,-2.128 -0.32,-3.23 0,-1.104 0.107,-2.191 0.32,-3.26 0.213,-1.066 0.578,-2.009 1.095,-2.829 0.516,-0.818 1.201,-1.488 2.054,-2.003 0.856,-0.515 1.924,-0.775 3.206,-0.775 1.281,0 2.359,0.26 3.23,0.775 0.871,0.515 1.566,1.185 2.083,2.003 0.516,0.82 0.883,1.763 1.096,2.829 0.213,1.069 0.32,2.155 0.32,3.26 0,1.102 -0.107,2.179 -0.32,3.23 z m 27.048,0 c -0.215,1.051 -0.581,1.994 -1.096,2.83 -0.515,0.838 -1.209,1.505 -2.083,2.005 -0.871,0.498 -1.949,0.746 -3.23,0.746 -1.282,0 -2.35,-0.249 -3.204,-0.746 -0.856,-0.5 -1.542,-1.167 -2.057,-2.005 -0.518,-0.835 -0.883,-1.779 -1.095,-2.83 -0.213,-1.05 -0.32,-2.128 -0.32,-3.23 0,-1.104 0.107,-2.191 0.32,-3.26 0.212,-1.066 0.578,-2.009 1.095,-2.829 0.515,-0.818 1.201,-1.488 2.057,-2.003 0.854,-0.515 1.922,-0.775 3.204,-0.775 1.281,0 2.359,0.26 3.23,0.775 0.874,0.515 1.568,1.185 2.083,2.003 0.515,0.82 0.88,1.763 1.096,2.829 0.213,1.069 0.32,2.155 0.32,3.26 0.001,1.102 -0.107,2.179 -0.32,3.23 z" />
		<rect
   style="fill:#e41f13"
   id="rect3117"
   height="27.610001"
   width="8.401"
   y="36.653999"
   x="135.55299" />
		<rect
   style="fill:#e41f13"
   id="rect3119"
   height="36.967999"
   width="8.4029999"
   y="27.297001"
   x="32.291" />
		<path
   style="fill:#e41f13"
   inkscape:connector-curvature="0"
   id="path3121"
   d="m 161.866,41.621 c -1.212,0 -2.225,0.275 -3.044,0.829 -0.82,0.551 -1.488,1.264 -2.003,2.135 -0.515,0.874 -0.88,1.835 -1.095,2.886 -0.213,1.05 -0.32,2.092 -0.32,3.123 0,0.997 0.107,2.012 0.32,3.044 0.215,1.033 0.56,1.967 1.042,2.805 0.482,0.836 1.129,1.521 1.949,2.057 0.82,0.533 1.816,0.8 2.991,0.8 1.816,0 3.212,-0.506 4.193,-1.521 0.977,-1.015 1.593,-2.377 1.841,-4.086 h 7.317 c -0.5,3.667 -1.922,6.463 -4.272,8.385 -2.35,1.924 -5.358,2.883 -9.025,2.883 -2.065,0 -3.961,-0.345 -5.688,-1.042 -1.727,-0.692 -3.197,-1.662 -4.407,-2.91 -1.209,-1.246 -2.155,-2.733 -2.829,-4.46 -0.679,-1.725 -1.015,-3.623 -1.015,-5.688 0,-2.135 0.312,-4.12 0.935,-5.954 0.623,-1.833 1.539,-3.417 2.751,-4.752 1.209,-1.335 2.686,-2.376 4.433,-3.125 1.743,-0.748 3.737,-1.122 5.981,-1.122 1.638,0 3.212,0.213 4.725,0.643 1.514,0.426 2.868,1.076 4.059,1.949 1.194,0.872 2.164,1.958 2.91,3.257 0.748,1.299 1.176,2.838 1.284,4.619 h -7.424 c -0.501,-3.171 -2.37,-4.755 -5.609,-4.755 z" />
		<path
   style="fill:#e41f13"
   inkscape:connector-curvature="0"
   id="path3123"
   d="m 180.343,40.713 c 0.784,-1.176 1.779,-2.117 2.991,-2.832 1.21,-0.712 2.572,-1.219 4.086,-1.521 1.512,-0.302 3.035,-0.455 4.565,-0.455 1.389,0 2.796,0.099 4.22,0.293 1.423,0.197 2.722,0.58 3.898,1.149 1.176,0.571 2.137,1.362 2.886,2.377 0.746,1.015 1.12,2.359 1.12,4.032 v 14.367 c 0,1.246 0.072,2.439 0.213,3.578 0.143,1.14 0.392,1.994 0.748,2.562 h -7.69 c -0.144,-0.425 -0.26,-0.862 -0.348,-1.306 -0.089,-0.446 -0.152,-0.901 -0.186,-1.364 -1.212,1.248 -2.637,2.119 -4.272,2.619 -1.64,0.498 -3.313,0.746 -5.02,0.746 -1.317,0 -2.547,-0.159 -3.688,-0.479 -1.138,-0.32 -2.135,-0.82 -2.991,-1.497 -0.854,-0.674 -1.521,-1.528 -2,-2.562 -0.481,-1.033 -0.721,-2.261 -0.721,-3.686 0,-1.566 0.275,-2.856 0.827,-3.871 0.551,-1.015 1.263,-1.826 2.137,-2.43 0.871,-0.605 1.868,-1.06 2.991,-1.362 1.12,-0.302 2.251,-0.542 3.392,-0.721 1.138,-0.177 2.26,-0.32 3.365,-0.426 1.102,-0.107 2.081,-0.269 2.937,-0.481 0.855,-0.215 1.53,-0.524 2.029,-0.935 0.498,-0.41 0.728,-1.006 0.695,-1.79 0,-0.818 -0.135,-1.47 -0.401,-1.949 -0.267,-0.481 -0.625,-0.854 -1.068,-1.122 -0.446,-0.267 -0.961,-0.444 -1.548,-0.533 -0.587,-0.09 -1.221,-0.135 -1.897,-0.135 -1.495,0 -2.67,0.321 -3.524,0.961 -0.856,0.643 -1.353,1.709 -1.494,3.206 l -0.014,1.25 h -7.576 l 0.004,-1.25 c 0.107,-1.78 0.553,-3.258 1.334,-4.433 z m 14.981,10.709 c -0.479,0.159 -0.997,0.293 -1.548,0.398 -0.554,0.108 -1.131,0.197 -1.736,0.269 -0.605,0.072 -1.21,0.161 -1.814,0.267 -0.571,0.107 -1.131,0.249 -1.683,0.428 -0.553,0.177 -1.033,0.419 -1.443,0.722 -0.41,0.302 -0.739,0.686 -0.988,1.147 -0.251,0.463 -0.374,1.05 -0.374,1.763 0,0.677 0.123,1.246 0.374,1.709 0.249,0.464 0.587,0.827 1.015,1.095 0.428,0.267 0.925,0.453 1.494,0.56 0.569,0.108 1.158,0.162 1.763,0.162 1.497,0 2.653,-0.249 3.473,-0.749 0.817,-0.497 1.422,-1.095 1.814,-1.79 0.392,-0.695 0.632,-1.398 0.721,-2.11 0.087,-0.71 0.135,-1.281 0.135,-1.709 v -2.829 c -0.321,0.284 -0.722,0.506 -1.203,0.667 z" />
		<path
   style="fill:#e41f13"
   inkscape:connector-curvature="0"
   id="path3125"
   d="m 129.773,66.252 c -0.302,1.422 -0.952,2.747 -1.947,3.974 -0.995,1.227 -2.435,2.267 -4.319,3.121 -1.884,0.854 -4.409,1.279 -7.574,1.279 -1.351,0 -2.729,-0.17 -4.133,-0.506 -1.402,-0.338 -2.684,-0.863 -3.84,-1.575 -1.154,-0.71 -2.115,-1.626 -2.878,-2.747 -0.766,-1.12 -1.201,-2.462 -1.306,-4.026 h 7.518 c 0.356,1.423 1.048,2.408 2.081,2.959 1.031,0.551 2.22,0.827 3.573,0.827 2.133,0 3.688,-0.639 4.667,-1.92 0.977,-1.279 1.447,-2.899 1.414,-4.853 V 59.16 h -0.108 c -0.817,1.458 -1.982,2.534 -3.492,3.226 -1.512,0.695 -3.103,1.042 -4.774,1.042 -2.063,0 -3.84,-0.365 -5.332,-1.096 -1.495,-0.728 -2.72,-1.723 -3.681,-2.984 -0.961,-1.264 -1.663,-2.74 -2.106,-4.429 -0.446,-1.687 -0.667,-3.473 -0.667,-5.359 0,-1.779 0.257,-3.495 0.773,-5.148 0.515,-1.651 1.27,-3.109 2.267,-4.373 0.995,-1.261 2.231,-2.267 3.705,-3.013 1.477,-0.746 3.174,-1.12 5.094,-1.12 1.814,0 3.405,0.338 4.774,1.015 1.367,0.674 2.574,1.49 3.438,2.888 h 0.108 v -3.156 h 7.2 v 25.813 c 0,1.102 -0.153,2.366 -0.455,3.786 z m -10.372,-9.174 c 0.817,-0.425 1.494,-0.995 2.027,-1.705 0.533,-0.71 0.932,-1.521 1.198,-2.426 0.267,-0.907 0.401,-1.859 0.401,-2.854 0,-1.138 -0.108,-2.213 -0.32,-3.226 -0.215,-1.015 -0.569,-1.914 -1.066,-2.695 -0.5,-0.782 -1.156,-1.404 -1.974,-1.866 -0.818,-0.462 -1.848,-0.692 -3.092,-0.692 -1.068,0 -1.985,0.213 -2.749,0.638 -0.764,0.428 -1.405,1.006 -1.92,1.734 -0.515,0.729 -0.889,1.566 -1.12,2.507 -0.23,0.943 -0.345,1.929 -0.345,2.959 0,0.997 0.096,1.982 0.291,2.959 0.197,0.979 0.536,1.859 1.015,2.641 0.479,0.782 1.109,1.422 1.893,1.92 0.782,0.497 1.761,0.746 2.935,0.746 1.067,10e-4 2.008,-0.212 2.826,-0.64 z" />
	</g><rect
   style="fill:none"
   y="-41.43914"
   x="-54.211311"
   id="rect3169"
   height="130.394"
   width="283.465" />
</svg>